<svg width="142" height="29" viewBox="0 0 142 29" fill="none" xmlns="http://www.w3.org/2000/svg">
<path opacity="0.6" d="M17.9938 16.1309C16.5652 16.8736 15.1283 17.6539 13.7194 18.4697L13.0358 17.2949C14.4541 16.4626 15.8984 15.6752 17.3678 14.9111L17.9938 16.1309ZM134.339 13.9561C135.823 14.6867 137.288 15.4593 138.744 16.252L138.089 17.4414C136.656 16.6504 135.21 15.8944 133.753 15.1738L134.339 13.9561ZM29.3199 10.9482C27.8064 11.5405 26.3049 12.1682 24.8151 12.8311L24.2487 11.5664C25.7549 10.9093 27.2741 10.283 28.8082 9.6709L29.3199 10.9482ZM122.78 8.90625C124.323 9.4952 125.856 10.0875 127.377 10.7305L126.839 12.002C125.339 11.3777 123.82 10.7781 122.308 10.2119L122.78 8.90625ZM41.1237 6.95605C39.5555 7.39397 38.0065 7.8587 36.4586 8.36816L36.026 7.0791C37.5911 6.5716 39.1678 6.09731 40.7477 5.64746L41.1237 6.95605ZM110.698 5.08203C112.287 5.51104 113.89 5.96535 115.463 6.45117L115.065 7.74902C113.502 7.27107 111.936 6.8175 110.358 6.39746L110.698 5.08203ZM53.2838 4.12109C51.678 4.41239 50.0838 4.73653 48.4928 5.08594L48.1803 3.73438C49.8037 3.37512 51.4173 3.05135 53.0397 2.7627L53.2838 4.12109ZM98.3151 2.43555C99.9437 2.70294 101.581 3.00411 103.199 3.33008L102.935 4.66699C101.333 4.34076 99.7212 4.04792 98.11 3.78125L98.3151 2.43555ZM65.6578 2.49609C64.0268 2.63364 62.4146 2.79653 60.7936 2.99316L60.6168 1.62988C62.2552 1.43483 63.8864 1.27238 65.5387 1.13574L65.6578 2.49609ZM85.8073 1.00293C87.4501 1.1064 89.102 1.24538 90.7448 1.41895L90.5953 2.77637C88.9753 2.59898 87.3523 2.44821 85.7272 2.34082L85.8073 1.00293ZM78.1237 0.69043L78.1178 2.05762C76.4879 2.03318 74.849 2.04448 73.2194 2.09082L73.1686 0.729492C74.8189 0.674782 76.4631 0.674893 78.1237 0.69043Z" fill="white" stroke="white" stroke-width="1.36056"/>
<path opacity="0.6" d="M140.682 18.1748L126.236 22.0469L125.88 20.7383L138.187 17.416L138.895 17.2246L138.651 16.5332L134.393 4.45898L135.684 4.0127L140.682 18.1748Z" fill="white" stroke="white" stroke-width="1.36056"/>
<path opacity="0.6" d="M11.3088 17.1341C9.22689 15.0522 5.85148 15.0522 3.76958 17.1341C1.68769 19.216 1.6877 22.5914 3.76959 24.6733C5.85148 26.7552 9.22689 26.7552 11.3088 24.6733C13.3907 22.5914 13.3907 19.216 11.3088 17.1341Z" fill="white" stroke="white" stroke-width="2.72112"/>
</svg>
